<svg width="24" height="24" viewBox="0 0 24 24" fill="none" xmlns="http://www.w3.org/2000/svg">
<path d="M10 19V14.288C10 14.1289 10.1289 14 10.288 14H13.712C13.8711 14 14 14.1289 14 14.288V19" stroke="#111111" stroke-width="1.2"/>
<mask id="path-2-inside-1_3516_14730" fill="white">
<path fill-rule="evenodd" clip-rule="evenodd" d="M20.8 10.6749V20.5593C20.8 20.6919 20.6926 20.7993 20.56 20.7993H13.7998V21.9993H20.56C21.3553 21.9993 22 21.3546 22 20.5593V10.6749C22 9.40155 21.3937 8.20428 20.3674 7.45067L13.7755 2.61064C12.719 1.83486 11.281 1.83486 10.2245 2.61064L3.63264 7.45067C2.60625 8.20428 2 9.40154 2 10.6749V20.5593C2 21.3546 2.64471 21.9993 3.44 21.9993H9.7998V20.7993H3.44C3.30745 20.7993 3.2 20.6919 3.2 20.5593V10.6749C3.2 9.78355 3.62438 8.94546 4.34284 8.41793L10.9347 3.57791C11.5686 3.11244 12.4314 3.11244 13.0653 3.57791L19.6572 8.41793C20.3756 8.94546 20.8 9.78355 20.8 10.6749Z"/>
</mask>
<path d="M13.7998 20.7993V19.5993H12.5998V20.7993H13.7998ZM13.7998 21.9993H12.5998V23.1993H13.7998V21.9993ZM20.3674 7.45067L19.6572 8.41793V8.41793L20.3674 7.45067ZM13.7755 2.61064L14.4857 1.64338V1.64338L13.7755 2.61064ZM10.2245 2.61064L9.51427 1.64338V1.64338L10.2245 2.61064ZM3.63264 7.45067L4.34284 8.41793H4.34285L3.63264 7.45067ZM9.7998 21.9993V23.1993H10.9998V21.9993H9.7998ZM9.7998 20.7993H10.9998V19.5993H9.7998V20.7993ZM4.34284 8.41793L5.05305 9.3852H5.05305L4.34284 8.41793ZM10.9347 3.57791L10.2245 2.61064V2.61065L10.9347 3.57791ZM13.0653 3.57791L13.7755 2.61064V2.61064L13.0653 3.57791ZM19.6572 8.41793L18.9469 9.3852L19.6572 8.41793ZM22 20.5593V10.6749H19.6V20.5593H22ZM20.56 21.9993C21.3553 21.9993 22 21.3546 22 20.5593H19.6C19.6 20.0291 20.0298 19.5993 20.56 19.5993V21.9993ZM13.7998 21.9993H20.56V19.5993H13.7998V21.9993ZM12.5998 20.7993V21.9993H14.9998V20.7993H12.5998ZM13.7998 23.1993H20.56V20.7993H13.7998V23.1993ZM20.56 23.1993C22.018 23.1993 23.2 22.0174 23.2 20.5593H20.8C20.8 20.6919 20.6926 20.7993 20.56 20.7993V23.1993ZM23.2 20.5593V10.6749H20.8V20.5593H23.2ZM23.2 10.6749C23.2 9.01954 22.4119 7.4631 21.0776 6.4834L19.6572 8.41793C20.3756 8.94546 20.8 9.78355 20.8 10.6749H23.2ZM21.0776 6.4834L14.4857 1.64338L13.0653 3.57791L19.6572 8.41793L21.0776 6.4834ZM14.4857 1.64338C13.0065 0.557284 10.9935 0.557286 9.51427 1.64338L10.9347 3.57791C11.5686 3.11244 12.4314 3.11244 13.0653 3.57791L14.4857 1.64338ZM9.51427 1.64338L2.92243 6.4834L4.34285 8.41793L10.9347 3.57791L9.51427 1.64338ZM2.92243 6.4834C1.58813 7.4631 0.8 9.01954 0.8 10.6749H3.2C3.2 9.78355 3.62438 8.94546 4.34284 8.41793L2.92243 6.4834ZM0.8 10.6749V20.5593H3.2V10.6749H0.8ZM0.8 20.5593C0.8 22.0174 1.98197 23.1993 3.44 23.1993V20.7993C3.30745 20.7993 3.2 20.6919 3.2 20.5593H0.8ZM3.44 23.1993H9.7998V20.7993H3.44V23.1993ZM10.9998 21.9993V20.7993H8.5998V21.9993H10.9998ZM3.44 21.9993H9.7998V19.5993H3.44V21.9993ZM2 20.5593C2 21.3546 2.64471 21.9993 3.44 21.9993V19.5993C3.97019 19.5993 4.4 20.0291 4.4 20.5593H2ZM2 10.6749V20.5593H4.4V10.6749H2ZM3.63264 7.45067C2.60625 8.20428 2 9.40154 2 10.6749H4.4C4.4 10.1655 4.6425 9.68664 5.05305 9.3852L3.63264 7.45067ZM10.2245 2.61065L3.63264 7.45067L5.05305 9.3852L11.6449 4.54518L10.2245 2.61065ZM13.7755 2.61064C12.719 1.83486 11.281 1.83486 10.2245 2.61064L11.6449 4.54518C11.8562 4.39002 12.1438 4.39002 12.3551 4.54518L13.7755 2.61064ZM20.3674 7.45067L13.7755 2.61064L12.3551 4.54518L18.9469 9.3852L20.3674 7.45067ZM22 10.6749C22 9.40155 21.3937 8.20428 20.3674 7.45067L18.9469 9.3852C19.3575 9.68664 19.6 10.1655 19.6 10.6749H22Z" fill="#111111" mask="url(#path-2-inside-1_3516_14730)"/>
</svg>
