<svg width="24" height="24" viewBox="0 0 24 24" fill="none" xmlns="http://www.w3.org/2000/svg">
<path d="M15.7994 6.1499C15.7994 8.30381 14.0533 10.0499 11.8994 10.0499C9.7455 10.0499 7.99941 8.30381 7.99941 6.1499C7.99941 3.99599 9.7455 2.2499 11.8994 2.2499C14.0533 2.2499 15.7994 3.99599 15.7994 6.1499Z" stroke="#111111" stroke-width="1.2"/>
<path d="M4.8 21.7498C3.54036 21.7498 2.65758 20.7472 2.88445 19.6977C3.3132 17.7142 4.2337 15.7981 5.71334 14.3838C7.18263 12.9794 9.23405 12.039 12 12.039C14.7659 12.039 16.8174 12.9794 18.2867 14.3838C19.7663 15.7981 20.6868 17.7142 21.1156 19.6977C21.3424 20.7472 20.4596 21.7498 19.2 21.7498H4.8Z" stroke="#111111" stroke-width="1.2" stroke-linejoin="round"/>
</svg>
