<svg width="24" height="24" viewBox="0 0 24 24" fill="none" xmlns="http://www.w3.org/2000/svg">
<path d="M4.35527 7.11191C4.44359 5.52216 5.75845 4.27832 7.35065 4.27832H16.6747C18.2669 4.27832 19.5818 5.52216 19.6701 7.11191L20.3368 19.1117C20.4323 20.8314 19.0637 22.2782 17.3414 22.2782H6.68399C4.96173 22.2782 3.59307 20.8314 3.68861 19.1117L4.35527 7.11191Z" fill="#26B888"/>
<path d="M9.01074 12.0283H15.0107" stroke="#007F49" stroke-width="1.2" stroke-linecap="round"/>
<path d="M14.4691 12.4281H14.6273V13.949C14.6273 13.9927 14.5919 14.0281 14.5482 14.0281C14.5045 14.0281 14.4691 13.9927 14.4691 13.949V12.4281Z" stroke="#007F49" stroke-width="1.2"/>
<path fill-rule="evenodd" clip-rule="evenodd" d="M11.1542 2.92168H12.8459C13.3216 2.92168 13.7165 3.26767 13.7927 3.72173H15.0001C14.9183 2.60348 13.9851 1.72168 12.8459 1.72168H11.1542C10.0151 1.72168 9.08188 2.60348 9 3.72173H10.2074C10.2836 3.26767 10.6785 2.92168 11.1542 2.92168Z" fill="#007F49"/>
<path fill-rule="evenodd" clip-rule="evenodd" d="M19.8845 18.1535L20.1303 18.1298C21.1181 18.0349 21.916 17.281 21.9812 16.294C22.1221 14.1577 21.8834 12.6464 21.3096 10.6831C21.0213 9.69667 20.0492 9.06826 19.0294 9.16629L19.0195 9.16724L19.1345 10.3615L19.1664 10.3584C19.6336 10.3135 20.0398 10.602 20.1557 10.9985C20.6982 12.855 20.9114 14.2239 20.7814 16.1938C20.7576 16.5542 20.4551 16.8933 19.9932 16.9377L19.7695 16.9592L19.8845 18.1535Z" fill="#007F49"/>
<path fill-rule="evenodd" clip-rule="evenodd" d="M4.78726 9.15689C3.8364 9.1457 2.9615 9.75654 2.69057 10.6836C2.11682 12.6469 1.87805 14.1582 2.01904 16.2944C2.08418 17.2814 2.88209 18.0354 3.86994 18.1303L3.92303 18.1354L4.03799 16.9412L4.00695 16.9382C3.54512 16.8938 3.24257 16.5546 3.21879 16.1943C3.08877 14.2244 3.30195 12.8555 3.84451 10.999C3.94674 10.6492 4.27503 10.3834 4.67179 10.3566L4.78726 9.15689Z" fill="#007F49"/>
</svg>
