<svg width="24" height="24" viewBox="0 0 24 24" fill="none" xmlns="http://www.w3.org/2000/svg">
<path d="M4.95435 7.17107C5.025 5.89927 6.07689 4.9042 7.35065 4.9042H16.6747C17.9485 4.9042 19.0004 5.89927 19.071 7.17107L19.7377 19.1709C19.8141 20.5466 18.7192 21.704 17.3414 21.704H6.68399C5.30619 21.704 4.21126 20.5466 4.28768 19.1709L4.95435 7.17107Z" stroke="#111111" stroke-width="1.2"/>
<path d="M9.01074 12.0542H15.0107" stroke="#111111" stroke-width="1.2" stroke-linecap="round"/>
<path d="M14.4691 12.4545H14.6273V13.9754C14.6273 14.0191 14.5919 14.0545 14.5482 14.0545C14.5045 14.0545 14.4691 14.0191 14.4691 13.9754V12.4545Z" stroke="#111111" stroke-width="1.2"/>
<path fill-rule="evenodd" clip-rule="evenodd" d="M11.1542 2.89629H12.8459C13.3217 2.89629 13.7167 3.24238 13.7928 3.69653H15.0002C14.9184 2.57819 13.9851 1.69629 12.8459 1.69629H11.1542C10.015 1.69629 9.08179 2.57819 9 3.69653H10.2074C10.2835 3.24238 10.6785 2.89629 11.1542 2.89629Z" fill="#111111"/>
<path fill-rule="evenodd" clip-rule="evenodd" d="M19.8845 18.1793L20.1303 18.1557C21.1181 18.0608 21.916 17.3068 21.9812 16.3198C22.1221 14.1836 21.8834 12.6722 21.3096 10.709C21.0213 9.72255 20.0492 9.09414 19.0294 9.19217L19.0195 9.19312L19.1345 10.3874L19.1664 10.3843C19.6336 10.3394 20.0398 10.6279 20.1557 11.0244C20.6982 12.8809 20.9114 14.2498 20.7814 16.2196C20.7576 16.58 20.4551 16.9192 19.9932 16.9636L19.7695 16.9851L19.8845 18.1793Z" fill="#111111"/>
<path fill-rule="evenodd" clip-rule="evenodd" d="M4.78726 9.18277C3.8364 9.17158 2.9615 9.78242 2.69057 10.7095C2.11682 12.6727 1.87805 14.1841 2.01904 16.3203C2.08418 17.3073 2.88209 18.0613 3.86994 18.1562L3.92303 18.1613L4.03799 16.967L4.00695 16.9641C3.54512 16.9197 3.24257 16.5805 3.21879 16.2201C3.08877 14.2502 3.30195 12.8814 3.84451 11.0249C3.94674 10.675 4.27503 10.4093 4.67179 10.3824L4.78726 9.18277Z" fill="#111111"/>
</svg>
