<svg width="24" height="24" viewBox="0 0 24 24" fill="none" xmlns="http://www.w3.org/2000/svg">
<path fill-rule="evenodd" clip-rule="evenodd" d="M8.97427 14.8636C7.52771 14.8636 6.86263 14.8636 5.34886 14.3863C4.0229 15.0064 3.03278 14.7587 2.41104 14.3865C2.08026 14.1885 2.17381 13.7424 2.50365 13.5429C3.24832 13.0923 3.53143 12.5954 3.09965 11.7834C2.5531 11.0111 2 9.6203 2 8.1864C2 4.49088 5.12549 1.5 8.97427 1.5C12.823 1.5 15.9453 4.49088 15.9453 8.18024C15.9453 11.8696 12.823 14.8605 8.97427 14.8605V14.8636Z" fill="#26B888"/>
<g style="mix-blend-mode:multiply">
<path fill-rule="evenodd" clip-rule="evenodd" d="M14.8421 22.5003C16.2887 22.5003 16.9537 22.5003 18.4675 22.023C19.7935 22.6431 20.7836 22.3954 21.4053 22.0232C21.7361 21.8252 21.6425 21.3792 21.3127 21.1796C20.568 20.729 20.2849 20.2321 20.7167 19.4202C21.2633 18.6478 21.8164 17.257 21.8164 15.8231C21.8164 12.1276 18.6909 9.13672 14.8421 9.13672C10.9933 9.13672 7.87109 12.1276 7.87109 15.817C7.87109 19.5063 10.9933 22.4972 14.8421 22.4972V22.5003Z" fill="#26B888"/>
</g>
</svg>
