<svg width="24" height="24" viewBox="0 0 24 24" fill="none" xmlns="http://www.w3.org/2000/svg">
<path d="M18.7217 21.4795C18.5855 21.4158 18.4304 21.4056 18.2871 21.4508C16.8802 21.8943 16.2833 21.9002 14.9032 21.9003C14.8831 21.8982 14.8627 21.8972 14.8421 21.8972C11.3003 21.8972 8.47109 19.1511 8.47109 15.817C8.47109 12.4829 11.3003 9.73672 14.8421 9.73672C18.3839 9.73672 21.2164 12.4829 21.2164 15.8231C21.2164 17.1229 20.7077 18.3942 20.2269 19.0736C20.2123 19.0943 20.1989 19.116 20.187 19.1384C19.9225 19.6358 19.8192 20.152 20.0145 20.6532C20.1796 21.0769 20.5194 21.3822 20.8847 21.6194C20.4115 21.8325 19.6982 21.9362 18.7217 21.4795Z" stroke="#111111" stroke-width="1.2" stroke-linejoin="round"/>
<path fill-rule="evenodd" clip-rule="evenodd" d="M14.9653 11.5972C13.9932 13.1588 12.375 14.3085 10.4648 14.7074C10.4589 14.6377 10.456 14.568 10.456 14.4985C10.456 14.1338 10.5372 13.7646 10.6909 13.4151C11.8671 13.0684 12.8737 12.3749 13.5897 11.4681C13.6936 11.4601 13.7996 11.456 13.9076 11.456C14.2858 11.456 14.6395 11.5062 14.9653 11.5972ZM7.00644 14.7816C7.00216 14.6877 7 14.5934 7 14.4985C7 14.1861 7.02344 13.8789 7.06875 13.5783C6.67557 13.5182 6.2621 13.416 5.70969 13.2418C5.423 13.1514 5.11281 13.1719 4.84051 13.2993C4.61544 13.4045 4.41168 13.4731 4.22783 13.514C4.27771 13.4261 4.32251 13.333 4.36095 13.2343C4.64164 12.5139 4.47224 11.8087 4.15914 11.22C4.13527 11.1751 4.10856 11.1318 4.07919 11.0903C3.66417 10.5038 3.2 9.35215 3.2 8.1864C3.2 5.20143 5.73939 2.7 8.97427 2.7C12.1608 2.7 14.6694 5.12727 14.7436 8.04713C15.1561 8.09397 15.5575 8.17503 15.9444 8.28721C15.945 8.25162 15.9453 8.21596 15.9453 8.18024C15.9453 4.49088 12.823 1.5 8.97427 1.5C5.12549 1.5 2 4.49088 2 8.1864C2 9.6203 2.5531 11.0111 3.09965 11.7834C3.53143 12.5954 3.24832 13.0923 2.50365 13.5429C2.17381 13.7424 2.08026 14.1885 2.41104 14.3865C3.03278 14.7587 4.0229 15.0064 5.34886 14.3863C6.0212 14.5983 6.52611 14.7161 7.00644 14.7816Z" fill="#111111"/>
</svg>
