<svg width="24" height="24" viewBox="0 0 24 24" fill="none" xmlns="http://www.w3.org/2000/svg">
<path fill-rule="evenodd" clip-rule="evenodd" d="M4.67011 3.5H14.0704C15.0645 3.5 15.8704 4.30588 15.8704 5.29999V10.3531L16.8704 9.28171V5.29999C16.8704 3.7536 15.6168 2.5 14.0704 2.5H4.67011C3.12372 2.5 1.87012 3.7536 1.87012 5.29999V18.7C1.87012 20.2464 3.12372 21.5 4.67011 21.5H14.0704C15.6168 21.5 16.8704 20.2464 16.8704 18.7V17.6296L16.3423 18.1577C16.2061 18.2939 16.0452 18.398 15.8704 18.4649V18.7C15.8704 19.6941 15.0645 20.5 14.0704 20.5H4.67011C3.676 20.5 2.87012 19.6941 2.87012 18.7V5.29999C2.87012 4.30588 3.676 3.5 4.67011 3.5Z" fill="#111111"/>
<mask id="path-2-inside-1_3516_14739" fill="white">
<path fill-rule="evenodd" clip-rule="evenodd" d="M16.8722 9.27982V8.4668H12.5721C12.1855 8.4668 11.8721 8.7802 11.8721 9.16679V10.7668C11.8721 11.1534 12.1855 11.4668 12.5721 11.4668H14.831L16.8722 9.27982Z"/>
</mask>
<path d="M16.8722 8.4668H17.8722V7.4668H16.8722V8.4668ZM16.8722 9.27982L17.6032 9.96214L17.8722 9.67398V9.27982H16.8722ZM14.831 11.4668V12.4668H15.2655L15.562 12.1491L14.831 11.4668ZM15.8722 8.4668V9.27982H17.8722V8.4668H15.8722ZM12.5721 9.4668H16.8722V7.4668H12.5721V9.4668ZM12.8721 9.16679C12.8721 9.33248 12.7378 9.4668 12.5721 9.4668V7.4668C11.6332 7.4668 10.8721 8.22791 10.8721 9.16679H12.8721ZM12.8721 10.7668V9.16679H10.8721V10.7668H12.8721ZM12.5721 10.4668C12.7378 10.4668 12.8721 10.6011 12.8721 10.7668H10.8721C10.8721 11.7057 11.6332 12.4668 12.5721 12.4668V10.4668ZM14.831 10.4668H12.5721V12.4668H14.831V10.4668ZM15.562 12.1491L17.6032 9.96214L16.1411 8.5975L14.0999 10.7845L15.562 12.1491Z" fill="#111111" mask="url(#path-2-inside-1_3516_14739)"/>
<path d="M18.1348 9.27131C18.4245 8.96762 18.8958 8.9662 19.1873 9.26813L20.9101 11.0521C21.2017 11.354 21.2032 11.845 20.9134 12.1487L15.837 17.4695C15.7119 17.6006 15.5459 17.6808 15.369 17.6957L13.0288 17.8919C12.8251 17.909 12.6548 17.7326 12.6699 17.5203L12.8441 15.0811C12.8573 14.8967 12.9333 14.7233 13.0584 14.5921L18.1348 9.27131Z" stroke="#111111"/>
<rect x="0.346238" y="-0.00104703" width="1.9" height="0.5" rx="0.25" transform="matrix(0.694658 0.71934 0.690295 -0.723528 17.7588 10.7521)" fill="#111111" stroke="#111111" stroke-width="0.5"/>
</svg>
