<svg width="24" height="24" viewBox="0 0 24 24" fill="none" xmlns="http://www.w3.org/2000/svg">
<mask id="path-1-inside-1_3516_15005" fill="white">
<path fill-rule="evenodd" clip-rule="evenodd" d="M4.67011 2.5C3.12372 2.5 1.87012 3.7536 1.87012 5.29999V18.7C1.87012 20.2464 3.12372 21.5 4.67011 21.5H14.0704C15.6168 21.5 16.8704 20.2464 16.8704 18.7V17.6296L16.3423 18.1577C16.1207 18.3793 15.8334 18.5161 15.5276 18.5455L12.8458 18.8039C12.2436 18.862 11.7353 18.3431 11.7785 17.7147L11.9646 15.0145C11.9874 14.6822 12.1222 14.369 12.3452 14.1302L16.8704 9.28171V5.29999C16.8704 3.7536 15.6168 2.5 14.0704 2.5H4.67011Z"/>
</mask>
<path fill-rule="evenodd" clip-rule="evenodd" d="M4.67011 2.5C3.12372 2.5 1.87012 3.7536 1.87012 5.29999V18.7C1.87012 20.2464 3.12372 21.5 4.67011 21.5H14.0704C15.6168 21.5 16.8704 20.2464 16.8704 18.7V17.6296L16.3423 18.1577C16.1207 18.3793 15.8334 18.5161 15.5276 18.5455L12.8458 18.8039C12.2436 18.862 11.7353 18.3431 11.7785 17.7147L11.9646 15.0145C11.9874 14.6822 12.1222 14.369 12.3452 14.1302L16.8704 9.28171V5.29999C16.8704 3.7536 15.6168 2.5 14.0704 2.5H4.67011Z" fill="#26B888"/>
<path d="M16.8704 17.6296H17.8704V15.2154L16.1633 16.9225L16.8704 17.6296ZM15.5276 18.5455L15.4316 17.5501H15.4316L15.5276 18.5455ZM12.8458 18.8039L12.7499 17.8085L12.7499 17.8085L12.8458 18.8039ZM11.7785 17.7147L10.7809 17.646L11.7785 17.7147ZM11.9646 15.0145L10.9669 14.9458L11.9646 15.0145ZM12.3452 14.1302L13.0762 14.8125L12.3452 14.1302ZM16.8704 9.28171L17.6015 9.96403L17.8704 9.67587V9.28171H16.8704ZM2.87012 5.29999C2.87012 4.30588 3.676 3.5 4.67011 3.5V1.5C2.57143 1.5 0.870117 3.20131 0.870117 5.29999H2.87012ZM2.87012 18.7V5.29999H0.870117V18.7H2.87012ZM4.67011 20.5C3.676 20.5 2.87012 19.6941 2.87012 18.7H0.870117C0.870117 20.7987 2.57143 22.5 4.67011 22.5V20.5ZM14.0704 20.5H4.67011V22.5H14.0704V20.5ZM15.8704 18.7C15.8704 19.6941 15.0645 20.5 14.0704 20.5V22.5C16.1691 22.5 17.8704 20.7987 17.8704 18.7H15.8704ZM15.8704 17.6296V18.7H17.8704V17.6296H15.8704ZM16.1633 16.9225L15.6352 17.4506L17.0494 18.8648L17.5775 18.3367L16.1633 16.9225ZM15.6352 17.4506C15.5741 17.5117 15.5016 17.5434 15.4316 17.5501L15.6235 19.5409C16.1653 19.4887 16.6672 19.247 17.0494 18.8648L15.6352 17.4506ZM15.4316 17.5501L12.7499 17.8085L12.9417 19.7993L15.6235 19.5409L15.4316 17.5501ZM12.7499 17.8085C12.7524 17.8083 12.7567 17.8082 12.762 17.809C12.7672 17.8097 12.7719 17.811 12.7758 17.8124C12.7834 17.8154 12.7856 17.8181 12.7844 17.8169C12.7832 17.8156 12.7807 17.8125 12.7788 17.8074C12.7773 17.8033 12.7753 17.796 12.7762 17.7834L10.7809 17.646C10.6986 18.8412 11.6761 19.9213 12.9417 19.7993L12.7499 17.8085ZM12.7762 17.7834L12.9622 15.0833L10.9669 14.9458L10.7809 17.646L12.7762 17.7834ZM12.9622 15.0833C12.9696 14.9751 13.0133 14.8799 13.0762 14.8125L11.6141 13.4479C11.2312 13.8581 11.0053 14.3893 10.9669 14.9458L12.9622 15.0833ZM13.0762 14.8125L17.6015 9.96403L16.1394 8.59939L11.6141 13.4479L13.0762 14.8125ZM15.8704 5.29999V9.28171H17.8704V5.29999H15.8704ZM14.0704 3.5C15.0645 3.5 15.8704 4.30588 15.8704 5.29999H17.8704C17.8704 3.20131 16.1691 1.5 14.0704 1.5V3.5ZM4.67011 3.5H14.0704V1.5H4.67011V3.5Z" fill="#26B888" mask="url(#path-1-inside-1_3516_15005)"/>
<path fill-rule="evenodd" clip-rule="evenodd" d="M16.8722 9.27982V8.4668H12.5721C12.1855 8.4668 11.8721 8.7802 11.8721 9.16679V10.7668C11.8721 11.1534 12.1855 11.4668 12.5721 11.4668H14.831L16.8722 9.27982Z" fill="#007F49"/>
<path d="M17.7875 8.91164C18.2678 8.40816 19.0491 8.40579 19.5325 8.90636L21.2553 10.6903C21.7386 11.1909 21.7411 12.0049 21.2607 12.5083L16.1843 17.8291C15.9769 18.0466 15.7017 18.1796 15.4084 18.2042L13.0682 18.4004C12.5649 18.4426 12.1442 18.0069 12.1816 17.4823L12.3558 15.0431C12.3776 14.7374 12.5036 14.4499 12.711 14.2324L17.7875 8.91164Z" fill="#007F49"/>
<rect x="0.346238" y="-0.00104703" width="1.9" height="0.5" rx="0.25" transform="matrix(0.694658 0.71934 0.690295 -0.723528 17.7588 10.7521)" fill="#26B888" stroke="#26B888" stroke-width="0.5"/>
</svg>
