<svg width="92" height="20" viewBox="0 0 92 20" fill="none" xmlns="http://www.w3.org/2000/svg">
<path d="M7.512 18.24C6.152 18.24 4.824 17.992 3.528 17.496C2.232 16.984 1.08 16.264 0.072 15.336L2.064 12.84C3.04 13.704 3.976 14.328 4.872 14.712C5.784 15.096 6.744 15.288 7.752 15.288C8.456 15.288 9.064 15.208 9.576 15.048C10.088 14.872 10.48 14.624 10.752 14.304C11.04 13.984 11.184 13.608 11.184 13.176C11.184 12.6 10.976 12.16 10.56 11.856C10.144 11.536 9.432 11.288 8.424 11.112L5.088 10.536C3.664 10.296 2.576 9.792 1.824 9.024C1.088 8.256 0.72 7.264 0.72 6.048C0.72 5.008 0.984 4.104 1.512 3.336C2.056 2.568 2.816 1.984 3.792 1.584C4.784 1.168 5.96 0.959999 7.32 0.959999C8.552 0.959999 9.776 1.168 10.992 1.584C12.224 2 13.312 2.576 14.256 3.312L12.384 5.904C10.624 4.56 8.856 3.888 7.08 3.888C6.456 3.888 5.912 3.968 5.448 4.128C4.984 4.288 4.624 4.512 4.368 4.8C4.128 5.072 4.008 5.4 4.008 5.784C4.008 6.296 4.192 6.696 4.56 6.984C4.928 7.256 5.544 7.464 6.408 7.608L9.576 8.136C11.256 8.408 12.512 8.944 13.344 9.744C14.176 10.528 14.592 11.568 14.592 12.864C14.592 13.952 14.304 14.904 13.728 15.72C13.152 16.52 12.328 17.144 11.256 17.592C10.2 18.024 8.952 18.24 7.512 18.24ZM22.767 18.24C21.519 18.24 20.391 17.952 19.383 17.376C18.375 16.8 17.575 16.024 16.983 15.048C16.391 14.072 16.095 12.976 16.095 11.76C16.095 10.544 16.383 9.448 16.959 8.472C17.551 7.48 18.351 6.696 19.359 6.12C20.383 5.544 21.519 5.256 22.767 5.256C24.015 5.256 25.143 5.544 26.151 6.12C27.175 6.696 27.975 7.48 28.551 8.472C29.143 9.448 29.439 10.544 29.439 11.76C29.439 12.976 29.143 14.072 28.551 15.048C27.975 16.024 27.183 16.8 26.175 17.376C25.167 17.952 24.031 18.24 22.767 18.24ZM22.767 15.384C23.423 15.384 24.007 15.224 24.519 14.904C25.047 14.584 25.463 14.152 25.767 13.608C26.087 13.048 26.247 12.432 26.247 11.76C26.247 11.072 26.087 10.456 25.767 9.912C25.463 9.368 25.047 8.936 24.519 8.616C24.007 8.28 23.423 8.112 22.767 8.112C22.127 8.112 21.543 8.28 21.015 8.616C20.487 8.936 20.071 9.368 19.767 9.912C19.463 10.456 19.311 11.072 19.311 11.76C19.311 12.432 19.463 13.048 19.767 13.608C20.071 14.152 20.487 14.584 21.015 14.904C21.543 15.224 22.127 15.384 22.767 15.384ZM31.4601 18V1.2L34.7481 0.647999V18H31.4601ZM37.3194 18V5.496H40.6074V18H37.3194ZM38.9514 4.008C38.4394 4.008 37.9994 3.824 37.6314 3.456C37.2634 3.088 37.0794 2.648 37.0794 2.136C37.0794 1.608 37.2634 1.168 37.6314 0.816C37.9994 0.447999 38.4394 0.263999 38.9514 0.263999C39.4794 0.263999 39.9194 0.447999 40.2714 0.816C40.6394 1.168 40.8234 1.608 40.8234 2.136C40.8234 2.648 40.6394 3.088 40.2714 3.456C39.9194 3.824 39.4794 4.008 38.9514 4.008ZM49.1068 18.192C47.7148 18.192 46.6588 17.88 45.9388 17.256C45.2348 16.616 44.8828 15.688 44.8828 14.472V8.232H42.3148V5.496H44.8828V2.304L48.1708 1.56V5.496H51.7468V8.232H48.1708V13.8C48.1708 14.376 48.2988 14.792 48.5548 15.048C48.8108 15.288 49.2588 15.408 49.8988 15.408C50.2188 15.408 50.5068 15.392 50.7628 15.36C51.0348 15.312 51.3308 15.232 51.6508 15.12V17.832C51.3148 17.944 50.8908 18.032 50.3788 18.096C49.8828 18.16 49.4588 18.192 49.1068 18.192ZM59.5461 18.24C58.2981 18.24 57.1701 17.952 56.1621 17.376C55.1541 16.8 54.3541 16.024 53.7621 15.048C53.1701 14.072 52.8741 12.976 52.8741 11.76C52.8741 10.544 53.1621 9.448 53.7381 8.472C54.3301 7.48 55.1301 6.696 56.1381 6.12C57.1621 5.544 58.2981 5.256 59.5461 5.256C60.7941 5.256 61.9221 5.544 62.9301 6.12C63.9541 6.696 64.7541 7.48 65.3301 8.472C65.9221 9.448 66.2181 10.544 66.2181 11.76C66.2181 12.976 65.9221 14.072 65.3301 15.048C64.7541 16.024 63.9621 16.8 62.9541 17.376C61.9461 17.952 60.8101 18.24 59.5461 18.24ZM59.5461 15.384C60.2021 15.384 60.7861 15.224 61.2981 14.904C61.8261 14.584 62.2421 14.152 62.5461 13.608C62.8661 13.048 63.0261 12.432 63.0261 11.76C63.0261 11.072 62.8661 10.456 62.5461 9.912C62.2421 9.368 61.8261 8.936 61.2981 8.616C60.7861 8.28 60.2021 8.112 59.5461 8.112C58.9061 8.112 58.3221 8.28 57.7941 8.616C57.2661 8.936 56.8501 9.368 56.5461 9.912C56.2421 10.456 56.0901 11.072 56.0901 11.76C56.0901 12.432 56.2421 13.048 56.5461 13.608C56.8501 14.152 57.2661 14.584 57.7941 14.904C58.3221 15.224 58.9061 15.384 59.5461 15.384ZM74.0471 18.24C73.0871 18.24 72.2311 18.032 71.4791 17.616C70.7431 17.184 70.1591 16.592 69.7271 15.84C69.3111 15.088 69.1031 14.224 69.1031 13.248V5.496H72.3911V12.768C72.3911 13.568 72.6231 14.208 73.0871 14.688C73.5671 15.168 74.2071 15.408 75.0071 15.408C75.5511 15.408 76.0391 15.304 76.4711 15.096C76.9191 14.872 77.2871 14.56 77.5751 14.16V5.496H80.8631V18H77.5751V16.992C76.6151 17.824 75.4391 18.24 74.0471 18.24ZM83.4257 18V5.496H86.7137V6.888C87.1137 6.344 87.5937 5.928 88.1537 5.64C88.7137 5.352 89.3457 5.208 90.0497 5.208C90.6577 5.224 91.1137 5.32 91.4177 5.496V8.376C91.1777 8.264 90.9137 8.184 90.6257 8.136C90.3377 8.072 90.0417 8.04 89.7377 8.04C89.0977 8.04 88.5137 8.2 87.9857 8.52C87.4577 8.84 87.0337 9.296 86.7137 9.888V18H83.4257Z" fill="#111111"/>
<path fill-rule="evenodd" clip-rule="evenodd" d="M59.8503 20C61.4794 20 62.9905 19.4953 64.2473 18.6295C66.3812 19.6905 68.4599 19.1085 67.9107 18.8432C66.525 18.169 65.8505 17.5427 66.466 16.3122C67.0815 15.3875 67.7044 13.7223 67.7044 12.0055C67.7044 7.58093 64.1846 4 59.8503 4C55.5161 4 52 7.58093 52 11.9982C52 16.4154 55.5161 19.9963 59.8503 19.9963V20Z" fill="#34B58B"/>
<g clip-path="url(#clip0_12_351)">
<path d="M59.5405 10.798L58.2245 12.0534L62.0366 15.6919C62.0366 15.6919 62.1514 15.7344 62.1932 15.6919L63.436 14.5003L59.5405 10.798Z" fill="white"/>
<path d="M61.8277 14.5642C62.3812 12.2343 65.6815 12.979 62.9034 15.628C62.8198 15.6919 62.7363 15.7451 62.6632 15.7876C61.7232 16.1493 61.6606 14.6174 61.8277 14.5642Z" fill="white"/>
<path fill-rule="evenodd" clip-rule="evenodd" d="M59.2416 11.4393L60.3525 12.498L59.4979 13.2598L58.3594 12.1746L59.2416 11.4393ZM56.3038 13.8879L58.1233 12.3714L59.2692 13.4636L58.2486 14.3734C59.1877 15.4298 58.3065 17.1772 56.2083 14.894C56.1457 14.8089 56.0935 14.7237 56.0517 14.6493C55.9472 14.362 55.9995 14.1599 56.1457 14.0109C56.191 13.9632 56.2448 13.9224 56.3038 13.8879Z" fill="white"/>
<path d="M56.1459 14.0108L56.7934 13.4789L56.3548 14.6066L56.1459 14.0108Z" fill="white"/>
<path fill-rule="evenodd" clip-rule="evenodd" d="M61.2188 11.9786C61.7178 11.5587 62.078 10.9604 62.078 10.298H62.0676C62.0676 9.02133 60.9919 8 59.6655 8C58.3391 8 57.2739 9.02133 57.2739 10.298C57.2739 11.5746 58.5898 12.596 59.676 12.596C60.1036 12.596 60.5669 12.436 60.9715 12.1647L59.963 11.2024L59.8846 11.1279L59.728 10.979L59.7275 10.9777L59.5504 10.8088L59.5511 10.8081L59.352 10.6173C59.1014 10.3726 59.07 9.97895 59.2998 9.72362C59.4356 9.56403 59.6131 9.45764 59.8742 9.45764C60.3233 9.45764 60.6366 9.90448 60.5322 10.2875C60.4723 10.5043 60.2726 10.747 60.1058 10.9167L61.2188 11.9786Z" fill="white"/>
</g>
<defs>
<clipPath id="clip0_12_351">
<rect width="8" height="8.0004" fill="white" transform="translate(56 8)"/>
</clipPath>
</defs>
</svg>
