<svg width="35" height="32" viewBox="0 0 35 32" fill="none" xmlns="http://www.w3.org/2000/svg">
<path d="M6.37077 2.16207C6.87895 1.16185 7.91774 0.530029 9.05405 0.530029H25.3458C26.4822 0.530029 27.521 1.16185 28.0291 2.16207L33.2 12.3396H1.19995L6.37077 2.16207Z" fill="white"/>
<path d="M8.87077 5.60651C9.37895 4.60629 10.4177 3.97447 11.5541 3.97447H22.8458C23.9822 3.97447 25.021 4.60629 25.5291 5.60651L29.2 12.8316H5.19995L8.87077 5.60651Z" fill="#26B888"/>
<path d="M0.199951 13.8157C0.199951 12.1852 1.5431 10.8634 3.19995 10.8634H31.2C32.8568 10.8634 34.2 12.1852 34.2 13.8157V23.657C34.2 25.2876 32.8568 26.6094 31.2 26.6094H3.19995C1.5431 26.6094 0.199951 25.2876 0.199951 23.657V13.8157Z" fill="white"/>
<path d="M0.199951 21.6888H8.19995V28.5776C8.19995 30.2082 6.85681 31.53 5.19995 31.53H3.19995C1.5431 31.53 0.199951 30.2082 0.199951 28.5776V21.6888Z" fill="white"/>
<path d="M26.2 21.6888H34.2V28.5776C34.2 30.2082 32.8568 31.53 31.2 31.53H29.2C27.5431 31.53 26.2 30.2082 26.2 28.5776V21.6888Z" fill="white"/>
<path d="M11.2 17.7523C11.2 18.8393 10.3045 19.7205 9.19995 19.7205C8.09538 19.7205 7.19995 18.8393 7.19995 17.7523C7.19995 16.6652 8.09538 15.784 9.19995 15.784C10.3045 15.784 11.2 16.6652 11.2 17.7523Z" fill="#26B888"/>
<path d="M26.2 17.7523C26.2 18.8393 25.3045 19.7205 24.2 19.7205C23.0954 19.7205 22.2 18.8393 22.2 17.7523C22.2 16.6652 23.0954 15.784 24.2 15.784C25.3045 15.784 26.2 16.6652 26.2 17.7523Z" fill="#26B888"/>
</svg>
