<svg width="120" height="120" viewBox="0 0 120 120" fill="none" xmlns="http://www.w3.org/2000/svg">
<path d="M63.6272 0C63.8693 0.123046 64.1347 0.0843741 64.3905 0.0966787C72.4927 0.478121 80.2324 2.28338 87.5515 5.74272C92.8527 8.24875 97.6428 11.4866 101.963 15.3971C102.05 15.4762 102.151 15.5401 102.212 15.5858C102.172 15.8512 102.003 15.9444 101.88 16.0645C96.3241 21.5066 90.7659 26.9458 85.2076 32.3856C85.1232 32.4683 85.0369 32.5497 84.9524 32.6329C84.8458 32.7366 84.7445 32.7202 84.6415 32.6259C84.5252 32.5187 84.406 32.4149 84.2885 32.3095C79.5098 28.0369 73.9258 25.3568 67.5522 24.2881C55.0889 22.198 42.6627 26.5732 34.3286 35.9469C31.1238 39.5516 28.7009 43.601 27.094 48.1162C27.0419 48.2621 26.9736 48.4027 26.9131 48.5457C26.8628 48.5146 26.8088 48.4876 26.7621 48.4519C23.5237 45.9922 20.2872 43.5307 17.0488 41.0709C13.575 38.4325 10.1 35.7958 6.625 33.1579C6.64657 32.9774 6.75741 32.8339 6.83829 32.6786C9.49967 27.5898 12.8087 22.9392 16.8565 18.8213C28.2132 7.26849 42.0713 0.9996 58.4422 0.0943351C58.6166 0.0849602 58.8047 0.127147 58.9581 0C60.5147 0 62.0712 0 63.6272 0Z" fill="#EA4435"/>
<path d="M26.8999 71.4961C27.4044 72.7242 27.8393 73.9805 28.4241 75.1769C33.1807 84.9069 40.6951 91.5783 51.2603 94.8303C54.9822 95.9758 58.8143 96.3806 62.7147 96.2535C67.0543 96.1123 71.2686 95.3758 75.3368 93.8734C77.5452 93.0578 79.6416 92.0236 81.6326 90.7826C81.8003 90.6783 81.9759 90.5858 82.1478 90.4879C82.2509 90.5787 82.3491 90.6754 82.4582 90.7586C86.8109 94.0697 91.1655 97.3785 95.5176 100.691C97.6068 102.281 99.6912 103.878 101.777 105.471C100.503 106.712 99.1041 107.811 97.6685 108.863C91.0043 113.748 83.5558 116.92 75.4285 118.614C72.3237 119.261 69.1866 119.667 66.022 119.882C65.1017 119.867 64.1826 119.869 63.2689 120C62.0317 120 60.7945 120 59.5572 120C58.7226 119.874 57.882 119.869 57.0408 119.886C55.3321 119.758 53.6299 119.574 51.9344 119.322C47.7841 118.705 43.7369 117.692 39.8215 116.217C26.4541 111.183 16.089 102.631 8.68063 90.6408C7.92871 89.4244 7.19716 88.1934 6.61719 86.885C7.85022 85.9581 9.08744 85.0358 10.3163 84.1024C15.8457 79.9019 21.3728 75.6984 26.8999 71.4961Z" fill="#35A851"/>
<path d="M101.765 105.47C99.6792 103.876 97.5948 102.279 95.5056 100.689C91.1534 97.3769 86.7989 94.0681 82.4461 90.757C82.3371 90.6738 82.2388 90.5771 82.1357 90.4863C83.0321 89.8037 83.9643 89.168 84.8277 88.442C89.6807 84.3627 92.8238 79.2792 94.2264 73.1673C94.2528 73.0537 94.2672 72.9365 94.2809 72.8205C94.3019 72.647 94.2102 72.5685 94.0407 72.5662C93.8609 72.5638 93.6818 72.5626 93.5021 72.5626C83.0465 72.5626 72.5903 72.5632 62.1347 72.5609C61.2072 72.5609 61.3168 72.6751 61.3162 71.7423C61.3132 64.7504 61.3138 57.7585 61.3156 50.766C61.3156 49.9515 61.2371 50.0336 62.0424 50.0336C80.7991 50.0324 99.5558 50.0324 118.312 50.0324C119.023 50.0324 119.036 50.0312 119.141 50.746C119.42 52.638 119.662 54.5335 119.795 56.4425C119.924 58.2741 120.017 60.1057 119.995 61.942C119.952 65.5567 119.667 69.1502 119.083 72.7232C118.298 77.522 117 82.176 115.094 86.6643C112.645 92.4316 109.325 97.6628 105.028 102.292C104.115 103.275 103.157 104.215 102.181 105.138C102.052 105.261 101.938 105.401 101.765 105.47Z" fill="#557DBF"/>
<path d="M6.61399 86.8835C5.83451 85.5423 5.2204 84.1243 4.61646 82.704C2.72557 78.255 1.42364 73.6426 0.676514 68.8813C0.0599987 64.9526 -0.125735 60.9976 0.0809685 57.0337C0.51175 48.7627 2.6375 40.9182 6.40669 33.5015C6.46781 33.3814 6.54989 33.2718 6.62178 33.157C10.0962 35.7948 13.5718 38.4315 17.0456 41.07C20.284 43.5297 23.5211 45.9907 26.7589 48.451C26.8056 48.4867 26.8595 48.5137 26.9099 48.5447C26.5396 49.8203 26.1388 51.0865 25.8476 52.3838C25.0627 55.8788 24.7967 59.4103 25.0999 62.9762C25.3335 65.7278 25.8841 68.4207 26.7715 71.0451C26.8212 71.1922 26.8542 71.3451 26.8949 71.4951C21.3672 75.6974 15.8408 79.9009 10.3119 84.1009C9.08485 85.0342 7.84762 85.9565 6.61399 86.8835Z" fill="#F9BC16"/>
</svg>
