<svg width="66" height="66" viewBox="0 0 66 66" fill="none" xmlns="http://www.w3.org/2000/svg">
<rect x="0.483464" y="1.47956" width="64.2735" height="63.6871" rx="31.8436" fill="#F2FAF7" stroke="#B8EDD9" stroke-width="0.526499"/>
<mask id="mask0_3461_14300" style="mask-type:alpha" maskUnits="userSpaceOnUse" x="0" y="0" width="66" height="65">
<path d="M0.483464 32.7367C0.483464 15.1531 15.0304 0.893132 32.6202 0.893132C50.2101 0.893132 64.757 15.1531 64.757 32.7367C64.757 50.3203 50.2101 64.5803 32.6202 64.5803C15.0304 64.5803 0.483464 50.3203 0.483464 32.7367Z" fill="#F2FAF7" stroke="#B8EDD9" stroke-width="0.526499"/>
</mask>
<g mask="url(#mask0_3461_14300)">
<path d="M48.4775 28.4132C43.9456 44.226 32.6173 45.3552 32.6173 45.3552C32.6173 45.3552 19.6056 43.0964 16.7572 28.4132C15.0225 19.4712 21.6435 8.74033 31.0005 10.9651C32.0564 11.2162 33.1724 11.2054 34.2192 10.9187C43.6001 8.34991 50.3767 18.2882 48.4775 28.4132Z" fill="#163028"/>
<path d="M47.3462 33.9065C47.3462 32.7434 46.4033 31.8005 45.2402 31.8005H42.8147V37.4479H45.2402C46.4033 37.4479 47.3462 36.505 47.3462 35.3419V33.9065Z" fill="url(#paint0_linear_3461_14300)"/>
<path d="M28.0909 37.4473H37.1538L38.2867 48.7419C37.1538 55.5187 28.0909 55.5187 26.958 48.7419L28.0909 37.4473Z" fill="url(#paint1_linear_3461_14300)"/>
<mask id="mask1_3461_14300" style="mask-type:alpha" maskUnits="userSpaceOnUse" x="26" y="37" width="13" height="17">
<path d="M28.0889 37.4495H37.1519L38.2847 48.7441C37.1519 55.5209 28.0889 55.5209 26.9561 48.7441L28.0889 37.4495Z" fill="url(#paint2_linear_3461_14300)"/>
</mask>
<g mask="url(#mask1_3461_14300)">
<path d="M27.5225 50.4375C27.5225 49.9857 34.9805 47.2373 38.2847 45.0725L38.0015 43.0959C37.3218 43.3218 30.6379 43.2842 27.5226 43.0959C27.3337 44.696 26.9592 48.0091 26.9561 48.4609C26.951 49.2232 27.233 50.2543 27.5225 50.4375Z" fill="#FBD4CE"/>
</g>
<path d="M17.8979 33.9065C17.8979 32.7434 18.8408 31.8005 20.0039 31.8005H22.4294V37.4479H20.0039C18.8408 37.4479 17.8979 36.505 17.8979 35.3419V33.9065Z" fill="url(#paint3_linear_3461_14300)"/>
<path d="M44.9509 32.9331C44.9509 38.1596 37.8097 45.3572 32.6241 45.3572C27.4386 45.3572 20.2974 38.1596 20.2974 32.9331C19.1768 24.3182 25.1974 18.25 32.6241 18.25C40.0509 18.25 46.0715 24.3182 44.9509 32.9331Z" fill="#FAE0DC"/>
<path d="M7.69824 68.1402C7.69824 59.2117 12.4934 50.6618 21.3291 49.378C23.1793 49.1092 25.0604 48.9124 26.957 48.7451C28.3846 55.7396 36.417 55.2311 38.2857 48.7451C39.8684 48.9225 41.4404 49.1232 42.9928 49.3641C52.2683 50.8032 57.5444 59.6138 57.5444 69.0003V70.5107C57.5444 72.837 55.6586 74.7227 53.3324 74.7227H11.9102C9.58401 74.7227 7.69824 72.837 7.69824 70.5107V68.1402Z" fill="#26B888"/>
<path d="M30.3569 38.5779C31.4898 40.1455 33.9825 40.0208 34.8884 38.5779" stroke="#F1A99E" stroke-width="1.053" stroke-linecap="round"/>
<g filter="url(#filter0_f_3461_14300)">
<ellipse cx="25.257" cy="36.3215" rx="2.83217" ry="3.3884" fill="#F5CFBF"/>
</g>
<g filter="url(#filter1_f_3461_14300)">
<ellipse cx="2.83217" cy="3.3884" rx="2.83217" ry="3.3884" transform="matrix(-1 0 0 1 42.8193 32.9331)" fill="#F5CFBF"/>
</g>
<rect x="26.9561" y="30.6741" width="2.26573" height="3.3884" rx="1.13287" fill="#163028"/>
<path d="M19.346 32.9285L19.341 32.9448C19.2115 33.3624 19.4815 33.7583 19.5758 34.1852C19.6007 34.2982 19.6093 34.4432 19.6093 34.6479L19.5867 35.5792L19.9085 34.8508C19.8125 34.7217 19.677 34.6202 19.5472 34.6202C19.2593 34.6202 19.0278 34.9337 19.0278 35.4317C19.0278 35.9757 19.248 36.3169 19.5472 36.3169C19.9649 36.3169 20.1607 36.3261 20.1607 35.4317C20.1607 34.4174 19.9839 33.4356 19.346 32.9285Z" fill="#F1A99E"/>
<path d="M45.8967 32.9285L45.9017 32.9448C46.0312 33.3624 45.7612 33.7583 45.6669 34.1852C45.642 34.2982 45.6334 34.4432 45.6334 34.6479L45.656 35.5792L45.3342 34.8508C45.4302 34.7217 45.5657 34.6202 45.6955 34.6202C45.9834 34.6202 46.2148 34.9337 46.2148 35.4317C46.2148 35.9757 45.9947 36.3169 45.6955 36.3169C45.2778 36.3169 45.082 36.3261 45.082 35.4317C45.082 34.4174 45.2588 33.4356 45.8967 32.9285Z" fill="#F1A99E"/>
<rect x="36.0166" y="30.6741" width="2.26573" height="3.3884" rx="1.13287" fill="#163028"/>
<path d="M32.6226 34.0596C32.0303 34.0596 31.0235 34.2855 31.7342 35.189" stroke="#F1A99E" stroke-width="0.421199" stroke-linecap="round"/>
<path d="M31.896 22.2198C31.6219 19.6641 31.896 19.6608 33.3873 19.1083C28.0547 3.96966 20.0652 19.885 17.7401 29.1577C17.5243 30.0184 18.4268 30.6453 19.2132 30.2343C20.8406 29.3836 22.874 28.5691 26.191 28.1237C28.9259 27.7564 32.2387 25.4145 31.896 22.2198Z" fill="#163028"/>
<path d="M33.728 22.0398C34.0021 19.4333 33.728 19.43 32.2367 18.8666C36.3916 1.831 45.2128 19.2206 47.8342 29.0935C48.0651 29.9631 47.1496 30.6042 46.3544 30.1832C44.7364 29.3266 42.7117 28.5098 39.433 28.0608C36.6982 27.6862 33.3853 25.2978 33.728 22.0398Z" fill="#163028"/>
</g>
<defs>
<filter id="filter0_f_3461_14300" x="21.3718" y="31.8801" width="7.77055" height="8.88285" filterUnits="userSpaceOnUse" color-interpolation-filters="sRGB">
<feFlood flood-opacity="0" result="BackgroundImageFix"/>
<feBlend mode="normal" in="SourceGraphic" in2="BackgroundImageFix" result="shape"/>
<feGaussianBlur stdDeviation="0.526499" result="effect1_foregroundBlur_3461_14300"/>
</filter>
<filter id="filter1_f_3461_14300" x="36.1018" y="31.8801" width="7.77055" height="8.88285" filterUnits="userSpaceOnUse" color-interpolation-filters="sRGB">
<feFlood flood-opacity="0" result="BackgroundImageFix"/>
<feBlend mode="normal" in="SourceGraphic" in2="BackgroundImageFix" result="shape"/>
<feGaussianBlur stdDeviation="0.526499" result="effect1_foregroundBlur_3461_14300"/>
</filter>
<linearGradient id="paint0_linear_3461_14300" x1="47.3462" y1="35.1889" x2="43.9476" y2="35.1889" gradientUnits="userSpaceOnUse">
<stop stop-color="#FAE0DC"/>
<stop offset="1" stop-color="#FBD4CE"/>
</linearGradient>
<linearGradient id="paint1_linear_3461_14300" x1="32.6223" y1="36.8825" x2="32.6223" y2="51.0009" gradientUnits="userSpaceOnUse">
<stop stop-color="#FBD4CE"/>
<stop offset="1" stop-color="#FAE0DC"/>
</linearGradient>
<linearGradient id="paint2_linear_3461_14300" x1="32.6204" y1="36.8847" x2="32.6204" y2="51.0031" gradientUnits="userSpaceOnUse">
<stop stop-color="#FBD4CE"/>
<stop offset="1" stop-color="#FAE0DC"/>
</linearGradient>
<linearGradient id="paint3_linear_3461_14300" x1="17.8979" y1="35.1889" x2="21.2966" y2="35.1889" gradientUnits="userSpaceOnUse">
<stop stop-color="#FAE0DC"/>
<stop offset="1" stop-color="#FBD4CE"/>
</linearGradient>
</defs>
</svg>
