<svg width="39" height="34" viewBox="0 0 39 34" fill="none" xmlns="http://www.w3.org/2000/svg">
<path d="M5.71997 6.53003C5.71997 3.21632 8.40626 0.530029 11.72 0.530029H27.72C31.0337 0.530029 33.72 3.21632 33.72 6.53003V22.53C33.72 24.7392 31.9291 26.53 29.72 26.53H9.71997C7.51083 26.53 5.71997 24.7392 5.71997 22.53V6.53003Z" fill="#AAB1B8"/>
<path d="M9.72437 7.53003C9.72437 5.87318 11.0675 4.53003 12.7244 4.53003H26.7244C28.3812 4.53003 29.7244 5.87318 29.7244 7.53003V15.53C29.7244 16.0823 29.2766 16.53 28.7244 16.53H10.7244C10.1721 16.53 9.72437 16.0823 9.72437 15.53V7.53003Z" fill="white"/>
<ellipse cx="27.993" cy="20.53" rx="2.02985" ry="2" fill="white"/>
<ellipse cx="27.993" cy="20.53" rx="2.02985" ry="2" fill="white"/>
<ellipse cx="27.993" cy="20.53" rx="2.02985" ry="2" fill="white"/>
<ellipse cx="27.993" cy="20.53" rx="2.02985" ry="2" fill="white"/>
<ellipse cx="11.7542" cy="20.53" rx="2.02985" ry="2" fill="white"/>
<path d="M36.6199 31.53L30.6199 25.53" stroke="#AAB1B8" stroke-width="3.4" stroke-linecap="round"/>
<path d="M2.61987 31.53L8.61987 25.53" stroke="#AAB1B8" stroke-width="3.4" stroke-linecap="round"/>
<path d="M4.64966 29.53H34.6497" stroke="#AAB1B8" stroke-width="3" stroke-linecap="round"/>
<path d="M9.72437 25.53H30.0229" stroke="#AAB1B8" stroke-width="3.4" stroke-linecap="round"/>
</svg>
